<?xml version="1.0" standalone="no"?><!DOCTYPE svg PUBLIC "-//W3C//DTD SVG 1.1//EN" "http://www.w3.org/Graphics/SVG/1.1/DTD/svg11.dtd"><svg t="1727769435827" class="icon" viewBox="0 0 1448 1024" version="1.1" xmlns="http://www.w3.org/2000/svg" p-id="4760" xmlns:xlink="http://www.w3.org/1999/xlink" width="282.8125" height="200"><path d="M1036.901058 779.567949c35.434907-12.901058 63.473207-40.767344 76.030237-76.374265 12.040988-33.88678 18.749538-70.181757 18.749538-107.680833 0-192.655804-171.498068-348.672602-382.90341-348.672602s-382.90341 156.188812-382.90341 348.672602c0 33.88678 5.332437 66.741475 15.309256 97.876029 11.69696 36.466991 40.079288 65.365362 76.202251 78.26642 134.34302 47.991937 348.328574 91.339493 579.515538 7.912649z" fill="#FBDEB2" p-id="4761"></path><path d="M964.827146 760.990425c26.662187-9.63279 47.647909-30.618512 57.108685-57.280699 9.116748-25.458088 13.933143-52.636318 13.933143-80.846632 0-144.491853-128.494541-261.633462-287.263565-261.633462s-287.263565 117.141609-287.263565 261.633462c0 25.458088 3.956325 50.056106 11.524946 73.278011 8.77272 27.350244 30.102469 49.024022 57.108685 58.656812 100.972283 36.294977 261.461448 68.805644 434.851671 6.192508z" fill="#FDFBE4" p-id="4762"></path><path d="M964.827146 760.990425c15.997312-5.84848 30.274483-15.997312 40.939358-29.242399 11.008903-13.073072 17.029397-29.414413 21.32975-45.755753 4.472367-16.341341 7.052579-33.198723 7.912649-50.22812 0.172014-4.300353 0.344028-8.428691 0.344028-12.729045l-0.688056-12.729044-0.688057-12.729044c-0.344028-4.300353-1.376113-8.428691-1.892155-12.55703-10.664875-67.257517-51.948261-127.118428-106.992777-165.649589-27.522258-19.437594-58.312783-34.058794-90.82345-43.003527-32.510667-8.944734-66.225433-12.040988-99.768184-10.492861-66.913489 2.92424-133.138922 28.210314-182.678985 73.105997-24.942046 22.18982-45.927768 48.852007-60.720981 78.782463-14.793214 29.930455-23.393919 62.78515-24.598018 96.155887-1.204099 16.685369 0.172014 33.370737 2.752226 49.884093 1.376113 8.256677 3.268268 16.341341 5.504451 24.426003 2.236183 8.256677 4.988409 15.653284 8.944734 22.877877 7.912649 14.277171 19.953637 26.318159 34.230808 34.402822 7.052579 4.128339 14.965228 6.880564 23.049891 9.63279 7.912649 2.92424 15.997312 5.504452 24.081975 8.084663 64.505291 20.297665 132.278851 31.82261 200.052411 31.650597 33.88678-0.172014 67.945574-2.752226 101.316311-8.600706 33.370737-5.504452 66.225433-14.105157 98.392071-25.286074z m0 0c-31.994625 11.352931-64.84932 20.297665-98.392071 26.490173-33.542752 6.020494-67.429531 8.944734-101.488325 9.288762-68.117588 1.032085-136.235176-9.116748-201.600538-28.382328-8.256677-2.408198-16.341341-4.816395-24.426004-7.568621-8.084663-2.580212-16.341341-5.332437-24.081975-9.63279-15.309256-8.428691-28.554342-20.985721-37.327062-36.294978-4.472367-7.568621-7.740635-15.997312-9.976819-24.253989-2.580212-8.256677-4.472367-16.685369-6.192508-25.11406-2.92424-17.029397-4.816395-34.402822-3.612296-51.604234 1.032085-34.574836 9.63279-68.805644 24.770032-99.940198s36.639006-59.00084 62.441122-82.05073c104.068537-93.231648 272.126323-99.252142 382.731396-16.341341 27.694272 20.297665 51.604233 45.411725 69.837729 74.310096 18.233496 28.898371 30.618512 61.409037 35.778935 95.123803 0.688056 4.128339 1.548127 8.428691 1.892155 12.55703l0.688057 12.729044 0.688056 12.729044c0 4.300353-0.172014 8.600706-0.344028 12.729045-1.032085 17.029397-3.78431 33.88678-8.256677 50.22812-4.472367 16.341341-10.492861 32.682681-21.673778 45.755753-11.008903 13.417101-25.458088 23.565933-41.455401 29.242399z" fill="#F9D592" p-id="4763"></path><path d="M736.220393 817.239039c-123.334117 0-232.219049-26.834201-314.957836-56.420628-41.971443-14.965228-74.998152-49.024022-88.415253-90.82345-10.836889-33.714766-16.341341-68.63363-16.341341-103.896523 0-203.320679 180.614816-368.626239 402.685033-368.626239 19.953637 0 39.907274 1.376113 59.344868 3.956324 10.836889 1.548127 18.577524 11.524945 17.029397 22.361835-1.548127 10.836889-11.524945 18.40551-22.361834 17.029397-17.717453-2.408198-35.950949-3.612296-54.012431-3.612297-200.224425 0-362.949773 147.588107-362.949773 328.89098 0 31.134554 4.816395 61.92508 14.449185 91.683521 9.63279 30.274483 33.542752 54.700487 63.989249 65.537376 134.687049 48.335965 342.30808 88.931295 565.926424 8.084663 30.102469-10.836889 53.496388-34.230808 64.161263-64.333277 11.69696-32.510667 17.545439-66.569461 17.545439-101.144297 0-88.931295-38.531161-172.358139-108.712917-234.627247-8.256677-7.224593-8.944734-19.781623-1.720141-28.0383 7.224593-8.256677 19.781623-8.944734 28.0383-1.720141 78.782463 70.009743 121.958004 163.929447 121.958004 264.385688 0 39.047203-6.70855 77.578364-19.781623 114.389383-14.793214 41.283387-46.787838 73.450025-88.071224 88.415253-96.843944 35.090879-190.935663 48.507979-277.802789 48.507979z" fill="" p-id="4764"></path><path d="M896.709558 276.770704c-2.92424 0-5.84848-0.688056-8.600705-1.892155-13.589115-6.536536-27.866286-12.213002-42.315472-17.201411-10.320847-3.440282-15.997312-14.793214-12.55703-25.114061 3.440282-10.492861 14.793214-15.997312 25.114061-12.55703 15.825298 5.332437 31.650596 11.69696 46.615824 18.921553 9.976818 4.644381 14.105157 16.513355 9.460776 26.490173-3.268268 7.052579-10.320847 11.352931-17.717454 11.352931z" fill="" p-id="4765"></path></svg>